<svg viewBox="0 0 236 288" xmlns="http://www.w3.org/2000/svg">
	<mask fill="#fff" id="a"><path d="M19 269a1 1 0 0 1-1-1v-11a1 1 0 0 1 1-1v13Z"></path></mask>
	<mask fill="#fff" id="b"><path d="M87 241a1 1 0 0 1 1 1v5a1 1 0 0 1-1 1v-7Z"></path></mask>
	<mask fill="#fff" id="c"><path d="M87 251a1 1 0 0 1 1 1v5a1 1 0 0 1-1 1v-7Z"></path></mask>
	<mask fill="#fff" id="d"><path d="M179 272.051c0-.58.471-1.051 1.051-1.051h8.898c.58 0 1.051.471 1.051 1.051h-11Z"></path></mask>
	<mask fill="#fff" id="e"><path d="M191 272.051c0-.58.471-1.051 1.051-1.051h2.898c.58 0 1.051.471 1.051 1.051h-5Z"></path></mask>
	<mask fill="#fff" id="f"><path d="M179 257.333c0-.58.471-1.051 1.051-1.051h8.898c.58 0 1.051.471 1.051 1.051h-11Z"></path></mask>
	<mask fill="#fff" id="g"><path d="M191 257.333c0-.58.471-1.051 1.051-1.051h2.898c.58 0 1.051.471 1.051 1.051h-5Z"></path></mask>
	<mask fill="#fff" id="h"><path d="M179 242.615c0-.58.471-1.051 1.051-1.051h8.898c.58 0 1.051.471 1.051 1.051h-11Z"></path></mask>
	<mask fill="#fff" id="i"><path d="M191 242.615c0-.58.471-1.051 1.051-1.051h2.898c.58 0 1.051.471 1.051 1.051h-5Z"></path></mask>
	<mask fill="#fff" id="j"><path d="M133 257.333c0-.58.471-1.051 1.051-1.051h8.898c.58 0 1.051.471 1.051 1.051h-11Z"></path></mask>
	<mask fill="#fff" id="k"><path d="M145 257.333c0-.58.471-1.051 1.051-1.051h2.898c.58 0 1.051.471 1.051 1.051h-5Z"></path></mask>
	<mask fill="#fff" id="l"><path d="M133 242.615c0-.58.471-1.051 1.051-1.051h8.898c.58 0 1.051.471 1.051 1.051h-11Z"></path></mask>
	<mask fill="#fff" id="m"><path d="M145 242.615c0-.58.471-1.051 1.051-1.051h2.898c.58 0 1.051.471 1.051 1.051h-5Z"></path></mask>
	<mask fill="#fff" id="n"><path d="M133 272.051c0-.58.471-1.051 1.051-1.051h8.898c.58 0 1.051.471 1.051 1.051h-11Z"></path></mask>
	<mask fill="#fff" id="o"><path d="M145 272.051c0-.58.471-1.051 1.051-1.051h2.898c.58 0 1.051.471 1.051 1.051h-5Z"></path></mask>
	<mask fill="#fff" id="p"><path d="M186 40a1 1 0 0 1 1-1h9a1 1 0 0 1 1 1h-11Z"></path></mask>
	<mask fill="#fff" id="q"><path d="M198 40a1 1 0 0 1 1-1h3a1 1 0 0 1 1 1h-5Z"></path></mask>
	<mask fill="#fff" id="r"><path d="M186 51a1 1 0 0 1 1-1h9a1 1 0 0 1 1 1h-11Z"></path></mask>
	<mask fill="#fff" id="s"><path d="M198 51a1 1 0 0 1 1-1h3a1 1 0 0 1 1 1h-5Z"></path></mask>
	<mask fill="#fff" id="t"><path d="M186 62a1 1 0 0 1 1-1h9a1 1 0 0 1 1 1h-11Z"></path></mask>
	<mask fill="#fff" id="u"><path d="M198 62a1 1 0 0 1 1-1h3a1 1 0 0 1 1 1h-5Z"></path></mask>
	<mask fill="#fff" id="v"><path d="M186 73a1 1 0 0 1 1-1h9a1 1 0 0 1 1 1h-11Z"></path></mask>
	<mask fill="#fff" id="w"><path d="M198 73a1 1 0 0 1 1-1h3a1 1 0 0 1 1 1h-5Z"></path></mask>
	<mask fill="#fff" id="x"><path d="M129.535 123.781h-1.082a.453.453 0 0 1 0-.906h1.082v.906Z"></path></mask>
	<mask fill="#fff" id="y"><path d="M129.535 115.625h-1.082a.453.453 0 0 1 0-.906h1.082v.906Z"></path></mask>
	<mask fill="#fff" id="z"><path d="M129.535 121.969H129a1 1 0 0 1-1-1v-3.438a1 1 0 0 1 1-1h.535v5.438Z"></path></mask>
	<mask fill="#fff" id="A"><path d="M92.535 123.781h-1.082a.453.453 0 0 1 0-.906h1.082v.906Z"></path></mask>
	<mask fill="#fff" id="B"><path d="M92.535 115.625h-1.082a.453.453 0 0 1 0-.906h1.082v.906Z"></path></mask>
	<mask fill="#fff" id="C"><path d="M92.535 121.969H92a1 1 0 0 1-1-1v-3.438a1 1 0 0 1 1-1h.535v5.438Z"></path></mask>
	<mask fill="#fff" id="D"><path d="M68 143v-2a1 1 0 0 1 1-1h29a1 1 0 0 1 1 1v2H68Z"></path></mask>
	<mask fill="#fff" id="E"><path d="M101 143v-2a1 1 0 0 1 1-1h1a1 1 0 0 1 1 1v2h-3Z"></path></mask>
	<mask fill="#fff" id="F"><path d="M64 143v-2a1 1 0 0 1 1-1h1a1 1 0 0 1 1 1v2h-3Z"></path></mask>
	<mask fill="#fff" id="G"><path d="M55.535 123.781h-1.082a.453.453 0 0 1 0-.906h1.082v.906Z"></path></mask>
	<mask fill="#fff" id="H"><path d="M55.535 115.625h-1.082a.453.453 0 0 1 0-.906h1.082v.906Z"></path></mask>
	<mask fill="#fff" id="I"><path d="M55.535 121.969H55a1 1 0 0 1-1-1v-3.438a1 1 0 0 1 1-1h.535v5.438Z"></path></mask>
	<mask fill="#fff" id="J"><path d="M76 38h1a1 1 0 0 1 1 1v33a1 1 0 0 1-1 1h-1V38Z"></path></mask>
	<mask fill="#fff" id="K"><path d="M76 76h1a1 1 0 0 1 1 1v22a1 1 0 0 1-1 1h-1V76Z"></path></mask>
	<mask fill="#fff" id="L"><path d="M60 38h1a1 1 0 0 1 1 1v33a1 1 0 0 1-1 1h-1V38Z"></path></mask>
	<mask fill="#fff" id="M"><path d="M60 76h1a1 1 0 0 1 1 1v22a1 1 0 0 1-1 1h-1V76Z"></path></mask>
	<mask fill="#fff" id="N"><path d="M137 100h-1a1 1 0 0 1-1-1V66a1 1 0 0 1 1-1h1v35Z"></path></mask>
	<mask fill="#fff" id="O"><path d="M137 62h-1a1 1 0 0 1-1-1V39a1 1 0 0 1 1-1h1v24Z"></path></mask>
	<mask fill="#fff" id="P"><path d="M155 100h-1a1 1 0 0 1-1-1V66a1 1 0 0 1 1-1h1v35Z"></path></mask>
	<mask fill="#fff" id="Q"><path d="M155 62h-1a1 1 0 0 1-1-1V39a1 1 0 0 1 1-1h1v24Z"></path></mask>
	<g data-target="case" data-index="1" class="case">
		<rect height="278" rx="3" stroke="#fff" stroke-width="6" width="230" x="3" y="7"></rect>
		<path d="M20.639 216.906a2 2 0 0 1 1.674-.906h192.14a2 2 0 0 1 1.756 1.043l2.18 4c.726 1.333-.239 2.957-1.756 2.957H19.697c-1.589 0-2.543-1.764-1.674-3.094l2.616-4ZM5.451.793A2 2 0 0 1 7.046 0h222.808a2 2 0 0 1 1.692.934l2.521 4c.84 1.331-.118 3.066-1.692 3.066H4.021C2.369 8 1.429 6.11 2.425 4.793l3.026-4Z" fill="#fff"></path>
	</g>
	<g data-target="psu" class="psu">
		<path d="M20 268v-11h-4v11h4Zm-3-12v13h4v-13h-4Zm3 1a1 1 0 0 1-1 1v-4a3 3 0 0 0-3 3h4Zm-1 10a1 1 0 0 1 1 1h-4a3 3 0 0 0 3 3v-4Z" fill="#fff" mask="url(#a)"></path>
		<path d="M86 242v5h4v-5h-4Zm3 6v-7h-4v7h4Zm-3-1a1 1 0 0 1 1-1v4a3 3 0 0 0 3-3h-4Zm1-4a1 1 0 0 1-1-1h4a3 3 0 0 0-3-3v4Z" fill="#fff" mask="url(#b)"></path>
		<path d="M86 252v5h4v-5h-4Zm3 6v-7h-4v7h4Zm-3-1a1 1 0 0 1 1-1v4a3 3 0 0 0 3-3h-4Zm1-4a1 1 0 0 1-1-1h4a3 3 0 0 0-3-3v4Z" fill="#fff" mask="url(#c)"></path>
		<rect height="38" rx="3.5" stroke="#fff" stroke-width="3" width="65" x="20.5" y="234.5"></rect>
	</g>
	<g class="group drives threedotfive">
		<g data-target="drive" class="drive">
			<rect height="9.564" rx="2" stroke="#fff" stroke-width="2" width="41" x="176" y="263.436"></rect>
			<path d="M180.051 273h8.898v-4h-8.898v4Zm9.949-2.949h-11v4h11v-4ZM188.949 273a.95.95 0 0 1-.949-.949h4a3.051 3.051 0 0 0-3.051-3.051v4Zm-8.898-4a3.051 3.051 0 0 0-3.051 3.051h4a.95.95 0 0 1-.949.949v-4Z" fill="#fff" mask="url(#d)"></path>
			<path d="M192.051 273h2.898v-4h-2.898v4Zm3.949-2.949h-5v4h5v-4ZM194.949 273a.95.95 0 0 1-.949-.949h4a3.051 3.051 0 0 0-3.051-3.051v4Zm-2.898-4a3.051 3.051 0 0 0-3.051 3.051h4a.95.95 0 0 1-.949.949v-4Z" fill="#fff" mask="url(#e)"></path>
		</g>
		<g data-target="drive" class="drive">
			<rect height="9.564" rx="2" stroke="#fff" stroke-width="2" width="41" x="176" y="248.718"></rect>
			<path d="M192.051 258.282h2.898v-4h-2.898v4Zm3.949-2.949h-5v4h5v-4Zm-1.051 2.949a.95.95 0 0 1-.949-.949h4a3.051 3.051 0 0 0-3.051-3.051v4Zm-2.898-4a3.051 3.051 0 0 0-3.051 3.051h4a.95.95 0 0 1-.949.949v-4Z" fill="#fff" mask="url(#g)"></path>
			<path d="M180.051 258.282h8.898v-4h-8.898v4Zm9.949-2.949h-11v4h11v-4Zm-1.051 2.949a.95.95 0 0 1-.949-.949h4a3.051 3.051 0 0 0-3.051-3.051v4Zm-8.898-4a3.051 3.051 0 0 0-3.051 3.051h4a.95.95 0 0 1-.949.949v-4Z" fill="#fff" mask="url(#f)"></path>
		</g>
		<g data-target="drive" class="drive">
			<rect height="9.564" rx="2" stroke="#fff" stroke-width="2" width="41" x="176" y="234"></rect>
			<path d="M192.051 243.564h2.898v-4h-2.898v4Zm3.949-2.949h-5v4h5v-4Zm-1.051 2.949a.95.95 0 0 1-.949-.949h4a3.051 3.051 0 0 0-3.051-3.051v4Zm-2.898-4a3.051 3.051 0 0 0-3.051 3.051h4a.95.95 0 0 1-.949.949v-4Z" fill="#fff" mask="url(#i)"></path>
			<path d="M180.051 243.564h8.898v-4h-8.898v4Zm9.949-2.949h-11v4h11v-4Zm-1.051 2.949a.95.95 0 0 1-.949-.949h4a3.051 3.051 0 0 0-3.051-3.051v4Zm-8.898-4a3.051 3.051 0 0 0-3.051 3.051h4a.95.95 0 0 1-.949.949v-4Z" fill="#fff" mask="url(#h)"></path>
		</g>
		<g data-target="drive" class="drive">
			<rect height="9.564" rx="2" stroke="#fff" stroke-width="2" width="41" x="130" y="248.718"></rect>
			<path d="M134.051 258.282h8.898v-4h-8.898v4Zm9.949-2.949h-11v4h11v-4Zm-1.051 2.949a.95.95 0 0 1-.949-.949h4a3.051 3.051 0 0 0-3.051-3.051v4Zm-8.898-4a3.051 3.051 0 0 0-3.051 3.051h4a.95.95 0 0 1-.949.949v-4Z" fill="#fff" mask="url(#j)"></path>
			<path d="M146.051 258.282h2.898v-4h-2.898v4Zm3.949-2.949h-5v4h5v-4Zm-1.051 2.949a.95.95 0 0 1-.949-.949h4a3.051 3.051 0 0 0-3.051-3.051v4Zm-2.898-4a3.051 3.051 0 0 0-3.051 3.051h4a.95.95 0 0 1-.949.949v-4Z" fill="#fff" mask="url(#k)"></path>
		</g>
		<g data-target="drive" class="drive">
			<rect height="9.564" rx="2" stroke="#fff" stroke-width="2" width="41" x="130" y="234"></rect>
			<path d="M134.051 243.564h8.898v-4h-8.898v4Zm9.949-2.949h-11v4h11v-4Zm-1.051 2.949a.95.95 0 0 1-.949-.949h4a3.051 3.051 0 0 0-3.051-3.051v4Zm-8.898-4a3.051 3.051 0 0 0-3.051 3.051h4a.95.95 0 0 1-.949.949v-4Z" fill="#fff" mask="url(#l)"></path>
			<path d="M146.051 243.564h2.898v-4h-2.898v4Zm3.949-2.949h-5v4h5v-4Zm-1.051 2.949a.95.95 0 0 1-.949-.949h4a3.051 3.051 0 0 0-3.051-3.051v4Zm-2.898-4a3.051 3.051 0 0 0-3.051 3.051h4a.95.95 0 0 1-.949.949v-4Z" fill="#fff" mask="url(#m)"></path>
		</g>
		<g data-target="drive" class="drive">
			<rect height="9.564" rx="2" stroke="#fff" stroke-width="2" width="41" x="130" y="263.436"></rect>
			<path d="M134.051 273h8.898v-4h-8.898v4Zm9.949-2.949h-11v4h11v-4ZM142.949 273a.95.95 0 0 1-.949-.949h4a3.051 3.051 0 0 0-3.051-3.051v4Zm-8.898-4a3.051 3.051 0 0 0-3.051 3.051h4a.95.95 0 0 1-.949.949v-4Z" fill="#fff" mask="url(#n)"></path>
			<path d="M146.051 273h2.898v-4h-2.898v4Zm3.949-2.949h-5v4h5v-4ZM148.949 273a.95.95 0 0 1-.949-.949h4a3.051 3.051 0 0 0-3.051-3.051v4Zm-2.898-4a3.051 3.051 0 0 0-3.051 3.051h4a.95.95 0 0 1-.949.949v-4Z" fill="#fff" mask="url(#o)"></path>
		</g>
	</g>
	<g class="group drives twodotfive">
		<g data-target="drive" class="drive">
			<rect height="5" rx="2" stroke="#fff" stroke-width="2" width="41" x="183" y="36"></rect>
			<path d="M187 41h9v-4h-9v4Zm10-3h-11v4h11v-4Zm-1 3a1 1 0 0 1-1-1h4a3 3 0 0 0-3-3v4Zm-9-4a3 3 0 0 0-3 3h4a1 1 0 0 1-1 1v-4Z" fill="#fff" mask="url(#p)"></path>
			<path d="M199 41h3v-4h-3v4Zm4-3h-5v4h5v-4Zm-1 3a1 1 0 0 1-1-1h4a3 3 0 0 0-3-3v4Zm-3-4a3 3 0 0 0-3 3h4a1 1 0 0 1-1 1v-4Z" fill="#fff" mask="url(#q)"></path>
		</g>
		<g data-target="drive" class="drive">
			<rect height="5" rx="2" stroke="#fff" stroke-width="2" width="41" x="183" y="47"></rect>
			<path d="M187 52h9v-4h-9v4Zm10-3h-11v4h11v-4Zm-1 3a1 1 0 0 1-1-1h4a3 3 0 0 0-3-3v4Zm-9-4a3 3 0 0 0-3 3h4a1 1 0 0 1-1 1v-4Z" fill="#fff" mask="url(#r)"></path>
			<path d="M199 52h3v-4h-3v4Zm4-3h-5v4h5v-4Zm-1 3a1 1 0 0 1-1-1h4a3 3 0 0 0-3-3v4Zm-3-4a3 3 0 0 0-3 3h4a1 1 0 0 1-1 1v-4Z" fill="#fff" mask="url(#s)"></path>
		</g>
		<g data-target="drive" class="drive">
			<rect height="5" rx="2" stroke="#fff" stroke-width="2" width="41" x="183" y="58"></rect>
			<path d="M187 63h9v-4h-9v4Zm10-3h-11v4h11v-4Zm-1 3a1 1 0 0 1-1-1h4a3 3 0 0 0-3-3v4Zm-9-4a3 3 0 0 0-3 3h4a1 1 0 0 1-1 1v-4Z" fill="#fff" mask="url(#t)"></path>
			<path d="M199 63h3v-4h-3v4Zm4-3h-5v4h5v-4Zm-1 3a1 1 0 0 1-1-1h4a3 3 0 0 0-3-3v4Zm-3-4a3 3 0 0 0-3 3h4a1 1 0 0 1-1 1v-4Z" fill="#fff" mask="url(#u)"></path>
		</g>
		<g data-target="drive" class="drive">
			<rect height="5" rx="2" stroke="#fff" stroke-width="2" width="41" x="183" y="69"></rect>
			<path d="M187 74h9v-4h-9v4Zm10-3h-11v4h11v-4Zm-1 3a1 1 0 0 1-1-1h4a3 3 0 0 0-3-3v4Zm-9-4a3 3 0 0 0-3 3h4a1 1 0 0 1-1 1v-4Z" fill="#fff" mask="url(#v)"></path>
			<path d="M199 74h3v-4h-3v4Zm4-3h-5v4h5v-4Zm-1 3a1 1 0 0 1-1-1h4a3 3 0 0 0-3-3v4Zm-3-4a3 3 0 0 0-3 3h4a1 1 0 0 1-1 1v-4Z" fill="#fff" mask="url(#w)"></path>
		</g>
	</g>
	<g data-target="mb" class="mb">
		<rect height="176" rx="3.5" stroke="#fff" stroke-width="3" width="152" x="22.5" y="25.5"></rect>
		<path d="m31.19 123.309-.01.007-7.32 5.782c-1.968 1.554-4.86.153-4.86-2.354V42a3 3 0 0 1 3-3h15a3 3 0 0 1 3 3v73.048c0 .931-.432 1.81-1.17 2.377l-7.64 5.884Z" fill="#fff"></path>
		<path d="m31.19 123.309-.01.007-7.32 5.782c-1.968 1.554-4.86.153-4.86-2.354V42a3 3 0 0 1 3-3h15a3 3 0 0 1 3 3v73.048c0 .931-.432 1.81-1.17 2.377l-7.64 5.884Z" stroke="#fff" stroke-width="2"></path>
		<g class="chips">
			<rect fill="#fff" height="13" rx="2" width="13" x="23" y="44"></rect>
			<rect fill="#fff" height="13" rx="2" width="13" x="23" y="61"></rect>
			<rect fill="#fff" height="13" rx="2" width="13" x="23" y="78"></rect>
		</g>
	</g>
	<g class="group drives mdottwo">
		<g data-target="drive" class="drive">
			<path d="M129.535 123.781v2h2v-2h-2Zm0-.906h2v-2h-2v2Zm0-1.094h-1.082v4h1.082v-4Zm-1.082 3.094h1.082v-4h-1.082v4Zm-.918-2v.906h4v-.906h-4Zm2.465.453c0 .854-.693 1.547-1.547 1.547v-4a2.453 2.453 0 0 0-2.453 2.453h4Zm-1.547-1.547c.854 0 1.547.693 1.547 1.547h-4a2.453 2.453 0 0 0 2.453 2.453v-4Z" fill="#fff" mask="url(#x)"></path>
			<path d="M129.535 115.625v2h2v-2h-2Zm0-.906h2v-2h-2v2Zm0-1.094h-1.082v4h1.082v-4Zm-1.082 3.094h1.082v-4h-1.082v4Zm-.918-2v.906h4v-.906h-4Zm2.465.453c0 .854-.693 1.547-1.547 1.547v-4a2.453 2.453 0 0 0-2.453 2.453h4Zm-1.547-1.547c.854 0 1.547.693 1.547 1.547h-4a2.453 2.453 0 0 0 2.453 2.453v-4Z" fill="#fff" mask="url(#y)"></path>
			<path d="M129.535 121.969v2h2v-2h-2Zm0-5.438h2v-2h-2v2Zm0 3.438H129v4h.535v-4Zm.465 1v-3.438h-4v3.438h4Zm-1-2.438h.535v-4H129v4Zm-1.465-2v5.438h4v-5.438h-4Zm2.465 1a1 1 0 0 1-1 1v-4a3 3 0 0 0-3 3h4Zm-1 2.438a1 1 0 0 1 1 1h-4a3 3 0 0 0 3 3v-4Z" fill="#fff" mask="url(#z)"></path>
			<rect height="12.5" rx="2" stroke="#fff" stroke-width="2" width="29.465" x="130.535" y="113"></rect>
		</g>
		<g data-target="drive" class="drive">
			<path d="M92.535 123.781v2h2v-2h-2Zm0-.906h2v-2h-2v2Zm0-1.094h-1.082v4h1.082v-4Zm-1.082 3.094h1.082v-4h-1.082v4Zm-.918-2v.906h4v-.906h-4Zm2.465.453c0 .854-.693 1.547-1.547 1.547v-4A2.453 2.453 0 0 0 89 123.328h4Zm-1.547-1.547c.854 0 1.547.693 1.547 1.547h-4a2.453 2.453 0 0 0 2.453 2.453v-4Z" fill="#fff" mask="url(#A)"></path>
			<path d="M92.535 115.625v2h2v-2h-2Zm0-.906h2v-2h-2v2Zm0-1.094h-1.082v4h1.082v-4Zm-1.082 3.094h1.082v-4h-1.082v4Zm-.918-2v.906h4v-.906h-4Zm2.465.453c0 .854-.693 1.547-1.547 1.547v-4A2.453 2.453 0 0 0 89 115.172h4Zm-1.547-1.547c.854 0 1.547.693 1.547 1.547h-4a2.453 2.453 0 0 0 2.453 2.453v-4Z" fill="#fff" mask="url(#B)"></path>
			<path d="M92.535 121.969v2h2v-2h-2Zm0-5.438h2v-2h-2v2Zm0 3.438H92v4h.535v-4Zm.465 1v-3.438h-4v3.438h4Zm-1-2.438h.535v-4H92v4Zm-1.465-2v5.438h4v-5.438h-4Zm2.465 1a1 1 0 0 1-1 1v-4a3 3 0 0 0-3 3h4Zm-1 2.438a1 1 0 0 1 1 1h-4a3 3 0 0 0 3 3v-4Z" fill="#fff" mask="url(#C)"></path>
			<rect height="12.5" rx="2" stroke="#fff" stroke-width="2" width="29.465" x="93.535" y="113"></rect>
		</g>
		<g data-target="drive" class="drive">
			<path d="M55.535 123.781v2h2v-2h-2Zm0-.906h2v-2h-2v2Zm0-1.094h-1.082v4h1.082v-4Zm-1.082 3.094h1.082v-4h-1.082v4Zm-.918-2v.906h4v-.906h-4Zm2.465.453c0 .854-.693 1.547-1.547 1.547v-4A2.453 2.453 0 0 0 52 123.328h4Zm-1.547-1.547c.854 0 1.547.693 1.547 1.547h-4a2.453 2.453 0 0 0 2.453 2.453v-4Z" fill="#fff" mask="url(#G)"></path>
			<path d="M55.535 115.625v2h2v-2h-2Zm0-.906h2v-2h-2v2Zm0-1.094h-1.082v4h1.082v-4Zm-1.082 3.094h1.082v-4h-1.082v4Zm-.918-2v.906h4v-.906h-4Zm2.465.453c0 .854-.693 1.547-1.547 1.547v-4A2.453 2.453 0 0 0 52 115.172h4Zm-1.547-1.547c.854 0 1.547.693 1.547 1.547h-4a2.453 2.453 0 0 0 2.453 2.453v-4Z" fill="#fff" mask="url(#H)"></path>
			<path d="M55.535 121.969v2h2v-2h-2Zm0-5.438h2v-2h-2v2Zm0 3.438H55v4h.535v-4Zm.465 1v-3.438h-4v3.438h4Zm-1-2.438h.535v-4H55v4Zm-1.465-2v5.438h4v-5.438h-4Zm2.465 1a1 1 0 0 1-1 1v-4a3 3 0 0 0-3 3h4Zm-1 2.438a1 1 0 0 1 1 1h-4a3 3 0 0 0 3 3v-4Z" fill="#fff" mask="url(#I)"></path>
			<rect height="12.5" rx="2" stroke="#fff" stroke-width="2" width="29.465" x="56.535" y="113"></rect>
		</g>
	</g>
	<g data-target="gpu" class="gpu">
		<path d="M59 148h86" stroke="#fff" stroke-linecap="round"></path>
		<path d="M59.5 136a1.5 1.5 0 0 0-3 0h3Zm0 8v-8h-3v8h3Z" fill="#fff"></path>
		<path d="M68 143v-2a1 1 0 0 1 1-1h29a1 1 0 0 1 1 1v2H68Z" mask="url(#D)" stroke="#fff" stroke-width="3"></path>
		<path d="M101 143v-2a1 1 0 0 1 1-1h1a1 1 0 0 1 1 1v2h-3Z" mask="url(#E)" stroke="#fff" stroke-width="3"></path>
		<path d="M64 143v-2a1 1 0 0 1 1-1h1a1 1 0 0 1 1 1v2h-3Z" mask="url(#F)" stroke="#fff" stroke-width="3"></path>
		<path d="M55 147a3 3 0 0 1 3-3h88a3 3 0 0 1 3 3v.525c0 .237-.028.473-.083.703l-2.764 11.474a3.001 3.001 0 0 1-2.917 2.298H58a3 3 0 0 1-3-3v-12Z" stroke="#fff" stroke-width="2"></path>
	</g>
	<g class="group drams">
		<g data-target="dram" class="dram">
			<path d="M60 38v-2h-2v2h2Zm0 35h-2v2h2v-2Zm0-33h1v-4h-1v4Zm0-1v33h4V39h-4Zm1 32h-1v4h1v-4Zm1 2V38h-4v35h4Zm-2-1a1 1 0 0 1 1-1v4a3 3 0 0 0 3-3h-4Zm1-32a1 1 0 0 1-1-1h4a3 3 0 0 0-3-3v4Z" fill="#fff" mask="url(#L)"></path>
			<path d="M60 76v-2h-2v2h2Zm0 24h-2v2h2v-2Zm0-22h1v-4h-1v4Zm0-1v22h4V77h-4Zm1 21h-1v4h1v-4Zm1 2V76h-4v24h4Zm-2-1a1 1 0 0 1 1-1v4a3 3 0 0 0 3-3h-4Zm1-21a1 1 0 0 1-1-1h4a3 3 0 0 0-3-3v4Z" fill="#fff" mask="url(#M)"></path>
			<rect height="66" rx="2" stroke="#fff" stroke-width="2" width="4" x="55" y="36"></rect>
		</g>
		<g data-target="dram" class="dram">
			<path d="M76 38v-2h-2v2h2Zm0 35h-2v2h2v-2Zm0-33h1v-4h-1v4Zm0-1v33h4V39h-4Zm1 32h-1v4h1v-4Zm1 2V38h-4v35h4Zm-2-1a1 1 0 0 1 1-1v4a3 3 0 0 0 3-3h-4Zm1-32a1 1 0 0 1-1-1h4a3 3 0 0 0-3-3v4Z" fill="#fff" mask="url(#J)"></path>
			<path d="M76 76v-2h-2v2h2Zm0 24h-2v2h2v-2Zm0-22h1v-4h-1v4Zm0-1v22h4V77h-4Zm1 21h-1v4h1v-4Zm1 2V76h-4v24h4Zm-2-1a1 1 0 0 1 1-1v4a3 3 0 0 0 3-3h-4Zm1-21a1 1 0 0 1-1-1h4a3 3 0 0 0-3-3v4Z" fill="#fff" mask="url(#K)"></path>
			<rect height="66" rx="2" stroke="#fff" stroke-width="2" width="4" x="71" y="36"></rect>
		</g>
		<g data-target="dram" class="dram">
			<path d="M137 100v2h2v-2h-2Zm0-35h2v-2h-2v2Zm0 33h-1v4h1v-4Zm0 1V66h-4v33h4Zm-1-32h1v-4h-1v4Zm-1-2v35h4V65h-4Zm2 1a1 1 0 0 1-1 1v-4a3 3 0 0 0-3 3h4Zm-1 32a1 1 0 0 1 1 1h-4a3 3 0 0 0 3 3v-4Z" fill="#fff" mask="url(#N)"></path>
			<path d="M137 62v2h2v-2h-2Zm0-24h2v-2h-2v2Zm0 22h-1v4h1v-4Zm0 1V39h-4v22h4Zm-1-21h1v-4h-1v4Zm-1-2v24h4V38h-4Zm2 1a1 1 0 0 1-1 1v-4a3 3 0 0 0-3 3h4Zm-1 21a1 1 0 0 1 1 1h-4a3 3 0 0 0 3 3v-4Z" fill="#fff" mask="url(#O)"></path>
			<rect height="66" rx="2" stroke="#fff" stroke-width="2" transform="rotate(180 142 102)" width="4" x="142" y="102"></rect>
		</g>
		<g data-target="dram" class="dram">
			<path d="M155 100v2h2v-2h-2Zm0-35h2v-2h-2v2Zm0 33h-1v4h1v-4Zm0 1V66h-4v33h4Zm-1-32h1v-4h-1v4Zm-1-2v35h4V65h-4Zm2 1a1 1 0 0 1-1 1v-4a3 3 0 0 0-3 3h4Zm-1 32a1 1 0 0 1 1 1h-4a3 3 0 0 0 3 3v-4Z" fill="#fff" mask="url(#P)"></path>
			<path d="M155 62v2h2v-2h-2Zm0-24h2v-2h-2v2Zm0 22h-1v4h1v-4Zm0 1V39h-4v22h4Zm-1-21h1v-4h-1v4Zm-1-2v24h4V38h-4Zm2 1a1 1 0 0 1-1 1v-4a3 3 0 0 0-3 3h4Zm-1 21a1 1 0 0 1 1 1h-4a3 3 0 0 0 3 3v-4Z" fill="#fff" mask="url(#Q)"></path>
			<rect height="66" rx="2" stroke="#fff" stroke-width="2" transform="rotate(180 160 102)" width="4" x="160" y="102"></rect>
		</g>
	</g>
	<g data-target="cpu" class="cpu">
		<path d="M98 56a1 1 0 0 1 1-1h1a1 1 0 0 1 1 1h-3ZM113 56a1 1 0 0 1 1-1h1a1 1 0 0 1 1 1h-3ZM103 56a1 1 0 0 1 1-1h1a1 1 0 0 1 1 1h-3ZM108 56a1 1 0 0 1 1-1h1a1 1 0 0 1 1 1h-3ZM116 82a1 1 0 0 1-1 1h-1a1 1 0 0 1-1-1h3ZM101 82a1 1 0 0 1-1 1h-1a1 1 0 0 1-1-1h3ZM111 82a1 1 0 0 1-1 1h-1a1 1 0 0 1-1-1h3ZM106 82a1 1 0 0 1-1 1h-1a1 1 0 0 1-1-1h3ZM120 60a1 1 0 0 1 1 1v1a1 1 0 0 1-1 1v-3ZM120 75a1 1 0 0 1 1 1v1a1 1 0 0 1-1 1v-3ZM120 65a1 1 0 0 1 1 1v1a1 1 0 0 1-1 1v-3ZM120 70a1 1 0 0 1 1 1v1a1 1 0 0 1-1 1v-3ZM94 78a1 1 0 0 1-1-1v-1a1 1 0 0 1 1-1v3ZM94 63a1 1 0 0 1-1-1v-1a1 1 0 0 1 1-1v3ZM94 73a1 1 0 0 1-1-1v-1a1 1 0 0 1 1-1v3ZM94 68a1 1 0 0 1-1-1v-1a1 1 0 0 1 1-1v3Z" fill="#fff"></path>
		<rect height="24" rx="3" stroke="#fff" stroke-width="2" width="24" x="95" y="57"></rect>
	</g>
</svg>