<svg viewBox="0 0 78.743 46.968" xmlns="http://www.w3.org/2000/svg"><path d="m530.436 290.342 6.658 8.935c4.438 5.956 8.512 11.037 12.222 15.242 3.71 4.205 7.691 8.797 11.945 13.776a590.023 590.023 0 0 1 11.95 14.425c3.713 4.638 9.56 11.441 17.54 20.41 7.98 8.97 15.892 17.872 23.736 26.707a2267.256 2267.256 0 0 0 21.633 24.05c6.578 7.197 11.225 8.056 13.942 2.576 2.717-5.48 8.45-12.8 17.199-21.96 8.748-9.162 15.904-16.447 21.468-21.856a2287.547 2287.547 0 0 1 17.272-16.611 674.569 674.569 0 0 0 16.506-16.229c5.054-5.154 9.753-9.968 14.098-14.443 4.344-4.475 9.494-10.016 15.448-16.624 5.954-6.607 10.747-11.748 14.38-15.422 3.631-3.675 6.18-6.009 7.645-7.003a16.094 16.094 0 0 1 4.757-2.202 16.095 16.095 0 0 1 5.212-.568c1.768.096 3.474.47 5.12 1.126a16.094 16.094 0 0 1 4.492 2.701 16.094 16.094 0 0 1 3.394 3.995 16.094 16.094 0 0 1 1.941 4.87c.381 1.729.476 3.473.285 5.234a16.094 16.094 0 0 1-1.402 5.051 16.095 16.095 0 0 1-2.94 4.34c-15.004 15.842-39.417-8.906-22.252-23.487a16.094 16.094 0 0 1 4.491-2.703 16.094 16.094 0 0 1 5.12-1.127 16.095 16.095 0 0 1 5.211.567 16.095 16.095 0 0 1 4.758 2.2 16.094 16.094 0 0 1 3.805 3.606 16.094 16.094 0 0 1 2.456 4.631c.565 1.678.848 3.403.848 5.173 0 1.771-.283 3.495-.849 5.173a16.095 16.095 0 0 1-2.455 4.632l-1.606 2.112-5.37 4.582c-3.583 3.055-8.51 7.767-14.786 14.135a11933.445 11933.445 0 0 0-15.839 16.1c-4.284 4.364-8.943 9.26-13.975 14.688a75638.076 75638.076 0 0 1-15.826 17.063 2642.057 2642.057 0 0 0-15.89 17.273c-5.073 5.567-11.507 12.866-19.3 21.897-7.794 9.03-13.63 15.948-17.51 20.753a496.057 496.057 0 0 1-12.49 14.836c-4.447 5.085-9.976 7.77-16.588 8.052-6.612.283-12.583-2.325-17.913-7.822-5.33-5.498-11.117-11.861-17.361-19.091-6.245-7.23-11.274-13.11-15.087-17.64a385.872 385.872 0 0 0-11.496-13.06 905.91 905.91 0 0 1-12.117-13.426c-4.228-4.774-10.087-11.613-17.577-20.518-7.49-8.905-13.37-15.797-17.635-20.676-4.266-4.88-8.437-9.663-12.511-14.35-4.075-4.687-8.453-9.915-13.135-15.684-4.681-5.77-7.355-9.208-8.02-10.317a15.914 15.914 0 0 1-1.567-3.517 15.937 15.937 0 0 1 .724-11.305 15.914 15.914 0 0 1 2.003-3.288 15.914 15.914 0 0 1 2.733-2.713 15.913 15.913 0 0 1 3.302-1.98 15.914 15.914 0 0 1 3.68-1.132 15.914 15.914 0 0 1 3.845-.219c1.29.083 2.552.319 3.785.708 1.233.39 2.401.92 3.505 1.593a15.914 15.914 0 0 1 3.023 2.386l1.366 1.375z" transform="matrix(.26458 0 0 .26458 -132.758 -75.015)"/></svg>