<svg viewBox="0 0 312.18 152.001" xmlns="http://www.w3.org/2000/svg"><path d="m19.103 4.236 5.437 7.562a215.65 215.65 0 0 0 11.606 14.734c4.112 4.78 8.525 9.75 13.24 14.91A643.27 643.27 0 0 0 64.179 57.08a1509.61 1509.61 0 0 1 15.053 15.625c4.889 5.15 9.675 10.23 14.36 15.244a1648.08 1648.08 0 0 0 12.473 13.22c3.63 3.8 7.285 7.54 10.96 11.22 3.675 3.68 7.78 7.36 12.312 11.042 4.532 3.68 10.04 3.274 16.528-1.218a837.572 837.572 0 0 1 19.524-13.121c6.53-4.256 13.5-8.91 20.908-13.963a729.564 729.564 0 0 1 22.985-15.04 1103.004 1103.004 0 0 0 23.69-15.314 3566.955 3566.955 0 0 0 22.447-15.034c7.085-4.787 13.383-9.222 18.892-13.303 5.51-4.081 10.35-8.025 14.522-11.832 4.17-3.807 6.824-6.125 7.957-6.955 1.133-.83 2.155-1.429 3.064-1.796a8.925 8.925 0 0 1 2.83-.637 8.942 8.942 0 0 1 7.64 3.493 8.91 8.91 0 0 1 1.372 2.557 8.91 8.91 0 0 1 .483 2.861 8.93 8.93 0 0 1-.457 2.866 8.922 8.922 0 0 1-1.347 2.57 8.914 8.914 0 0 1-2.098 2.004c-9.96 6.823-20.293-9.408-9.301-15.303a8.912 8.912 0 0 1 2.745-.938 8.887 8.887 0 0 1 2.902-.013 8.9 8.9 0 0 1 2.754.914 8.897 8.897 0 0 1 2.317 1.746 8.945 8.945 0 0 1 2.283 8.085 8.92 8.92 0 0 1-1.062 2.7 8.9 8.9 0 0 1-1.87 2.22c-.584.643-1.192.983-1.98 1.27-.578.21-3.308 2.007-8.19 5.388a1895.168 1895.168 0 0 0-15.812 11.078 1795.774 1795.774 0 0 0-18.88 13.568 42964.591 42964.591 0 0 0-21.98 16.004 3571.069 3571.069 0 0 1-22.598 16.332 428.796 428.796 0 0 0-21.553 16.505 2795.242 2795.242 0 0 1-19.513 15.812c-5.98 4.797-12.405 9.663-19.275 14.598-6.87 4.935-12.732 8.165-17.59 9.69-4.855 1.525-9.255.802-13.2-2.17-3.942-2.973-8.19-6.72-12.74-11.244-4.55-4.524-8.65-8.753-12.3-12.686a487.255 487.255 0 0 1-10.551-11.743c-3.385-3.895-7.414-8.303-12.085-13.223-4.672-4.92-9.44-9.848-14.304-14.785a537.556 537.556 0 0 0-15.602-15.182 625.139 625.139 0 0 1-15.953-15.461 501.356 501.356 0 0 1-14.654-15.352c-4.671-5.11-8.886-10.14-12.644-15.086-3.758-4.947-5.847-7.791-6.268-8.534a10.558 10.558 0 0 1-1.367-4.863A10.48 10.48 0 0 1 .23 8.361a10.516 10.516 0 0 1 2.2-4.546A10.54 10.54 0 0 1 6.496.813a10.531 10.531 0 0 1 7.48-.241 10.524 10.524 0 0 1 4.248 2.733z"/></svg>