<svg xmlns="http://www.w3.org/2000/svg" viewBox="0 0 239 236"><path data-name="Path 1" d="m56.05 4.206 5.38 9.33q5.38 9.331 10.547 17.266t10.32 15.826Q87.45 54.519 93.592 64.4t13.75 22.574q7.607 12.691 17.371 26.915t18.321 25.72q8.558 11.5 19.22 25.4t17.813 22.574q7.152 8.668 12.351 14.4t11.352 12.019q6.153 6.291 7.024 7.379a8.5 8.5 0 1 1-13.814 9.882c-.5-.784-.686-.762-4.874-5.963s-7.854-9.875-11-14.02-7.092-9.178-11.845-15.1-10.756-13.494-18.008-22.711-13.865-17.671-19.836-25.36-12.4-16.31-19.293-25.865-13.011-18.427-18.362-26.615-10.2-15.507-14.543-21.959-8.195-12.338-11.55-17.655-6.776-10.741-10.262-16.27-7.068-11.378-10.743-17.546-5.652-9.57-5.928-10.207a8.571 8.571 0 0 1 14.681-8.606l.631.828Z"/><path data-name="Path 2" d="m234.626 30.162-7 5.514q-7 5.513-13.294 10.98T201.45 57.742q-6.585 5.619-15.323 12.609t-17.72 13.832q-8.985 6.837-19.309 14.616t-21.494 16.446q-11.17 8.668-20.711 16.438t-17.934 15.5q-8.394 7.737-15.018 14.391t-11.856 12.181q-5.233 5.528-10.333 10.628t-10.218 10.656a122.852 122.852 0 0 0-10.088 12.623 101.231 101.231 0 0 0-8.137 13.531q-3.168 6.462-4.367 7.783a10.882 10.882 0 1 1-15.281-15.451c.89-.789-1.79 1.849-1.3 1.246s1.9-2.719 4.221-6.348a113.082 113.082 0 0 1 10.1-13q6.621-7.555 12.336-13.16t11.026-10.17q5.311-4.564 11.007-9.726t12.723-11.6q7.027-6.434 15.677-14.413t18.107-16.071q9.451-8.1 20.354-17.172t20.851-17.4q9.948-8.33 18.507-15.272t16.979-14.28q8.42-7.339 15.067-12.819t13.389-11.057q6.743-5.57 13.844-10.95t8.03-5.933a8.91 8.91 0 0 1 10.816 14Z"/></svg>