<svg xmlns="http://www.w3.org/2000/svg" viewBox="0 0 335 223"><path d="M232.693 22.178s-3.992.376-6.734.371-5.614.034-8.617.115-6.73.108-11.185.083-9.035-.029-13.742-.011-8.783.056-12.228.116-6.693.122-9.744.183-6.79.128-11.217.2-8.885.1-13.374.091-9.54-.068-15.154-.174-10.8-.158-15.546-.16-9.425 0-14.024.01-8.932.027-13 .057-7.766.07-11.1.117-6.9.111-10.723.189a99.411 99.411 0 0 0-10.987.809q-5.259.693-10.231 1.6a25.333 25.333 0 0 0-10 4.443 31.637 31.637 0 0 0-7.649 7.211 24.131 24.131 0 0 0-3.753 8.043 37.62 37.62 0 0 0-1.1 9.64q.027 5.269.018 10.784t.014 10.166l.042 9.253q.02 4.602.056 9.82.037 5.218.055 10.857t.439 10.812q.42 5.173 1.058 10.59t.712 9.88q.074 4.464.6 9.438t1.065 9.4a82.1 82.1 0 0 1 .581 9.086 80.707 80.707 0 0 0 .905 10.627 18.407 18.407 0 0 0 3.848 9.488 22.083 22.083 0 0 0 7.049 5.54q4.063 2.022 8.809 4.088a43.483 43.483 0 0 0 9.951 2.97 76.36 76.36 0 0 0 11.315 1.043q6.109.138 12.412.3t12.312.189q6.011.024 11.724.036t11-.477q5.288-.489 10.514-1.174t11.335-1.04q6.11-.353 11.716-.37t10.03.009q4.422.025 9.408.072t10.535.119q5.549.072 11.576.157t13.644.262q7.618.177 13.311.2t11.22.432q5.527.411 10.636.843t9.8.41q4.69-.022 9.24.379a48.172 48.172 0 0 0 10.971-.541q6.422-.942 12.094-2.008a27.463 27.463 0 0 0 9.567-3.507 28.3 28.3 0 0 0 7.055-6.384 32.3 32.3 0 0 0 5.179-9.909q2.02-5.964 3.394-11.635a101.836 101.836 0 0 0 1.979-10.114q.605-4.442 1.169-10.711t.8-11.381q.236-5.112.292-11.638t.1-11.628q.047-5.1-.315-10.312t-1.318-11.9q-.955-6.688-1.7-11.049t-1.556-9.631a78.926 78.926 0 0 0-2.434-10.685 64.253 64.253 0 0 0-3.959-10.121 79.3 79.3 0 0 0-5.1-8.833 18.59 18.59 0 0 0-8.249-6.543 54.98 54.98 0 0 0-10.323-3.475 82.271 82.271 0 0 0-10.661-1.546q-5.826-.489-11.763-1.42a45.682 45.682 0 0 0-10.465-.584c-3.018.232-5.411-.624-9.467-1s-6.535-1.115-6.838-1-2.922-.156-4.18 0-11.341-13.868-10.763-15a11.606 11.606 0 0 1 5.309-5.159l1.714-.823 3.741-.511a34.654 34.654 0 0 1 8.526.031 90.252 90.252 0 0 0 9.226.588 78.909 78.909 0 0 1 9.21.657q4.767.611 9.18.864t9.631.61a68.569 68.569 0 0 1 10.094 1.433 66.755 66.755 0 0 1 10.128 3.151 91.876 91.876 0 0 1 11.637 5.732 36.558 36.558 0 0 1 10.3 8.437 57.5 57.5 0 0 1 6.356 9.389q2.444 4.608 4.579 9.775a69.643 69.643 0 0 1 3.229 9.514q1.094 4.348 2.083 9.405t1.6 9.4q.607 4.341 1.624 11.189t1.532 12.037q.516 5.19.917 11.708t.389 12.912q-.012 6.392-.041 11.987t-.421 10.715q-.392 5.119-.689 9.976t-.9 9.787q-.6 4.929-1.617 9.494t-2.61 10.214a112.67 112.67 0 0 1-4.159 11.936 37.61 37.61 0 0 1-7.339 11.429 56.377 56.377 0 0 1-9.02 8.064 43.636 43.636 0 0 1-9.918 5 73.965 73.965 0 0 1-11.18 3.137q-5.507 1.071-9.87 1.608t-9.722.874a51.684 51.684 0 0 1-9.875-.25 87.536 87.536 0 0 0-9.537-.689 105.882 105.882 0 0 1-10.56-.772q-5.538-.67-11.426-1.12t-12.357-.384q-6.469.065-14.025.259t-13.439.277q-5.884.083-10.647.116t-9.576.077q-4.813.044-10.657.068t-10.549.1q-4.707.078-10.077.679t-12.108 1.433a106.534 106.534 0 0 1-12.706.851q-5.968.018-11.168.011t-10.529.074q-5.329.081-12.987.216a96.69 96.69 0 0 1-12.931-.5q-5.273-.635-9.936-1.412a57.978 57.978 0 0 1-10.062-2.725q-5.4-1.948-11.078-4.565a47.131 47.131 0 0 1-10.673-6.828 42.446 42.446 0 0 1-7.7-8.144 41.886 41.886 0 0 1-4.428-8.28 59.961 59.961 0 0 1-2.779-9.111 42.087 42.087 0 0 1-1.04-9.371q.023-4.6.076-9.235a61.111 61.111 0 0 0-.948-10.636 65.95 65.95 0 0 1-.995-10.84 96.935 96.935 0 0 0-.48-9.731q-.487-4.893-.931-9.529a95 95 0 0 1-.411-9.672q.032-5.036.041-9.566t.043-9.9q.036-5.366.056-9.975t.043-9.33q.022-4.722.022-10.137t.259-11.128A58.831 58.831 0 0 1 1.887 40.95a37.227 37.227 0 0 1 3.4-9.158 57.074 57.074 0 0 1 5.624-8.458 45 45 0 0 1 7.063-7.226 60.7 60.7 0 0 1 8.023-5.419 37.081 37.081 0 0 1 8.622-3.623q4.277-1.155 9.456-2.105a79.93 79.93 0 0 1 10.847-1.2q5.667-.255 11.395-.138t10.723.189q4.995.072 11.1.117t13 .057q6.9.013 14.024.01t15.546-.16q8.421-.158 15.154-.173t13.374.091q6.641.106 11.217.2t9.744.182q5.168.092 12.228.117t13.742-.011q6.682-.038 11.185.083t8.617.114c2.742 0 6.733 17.739 6.733 17.739Z"/><path d="m62.165 49.47 3.693 4.515q3.694 4.516 6.541 7.914t6.265 8.074q3.419 4.675 6.811 9.055t6.763 9.037a88.013 88.013 0 0 0 6.732 8.276q3.36 3.618 7.89 8.21t8.527 8.96q4 4.368 7.838 8.212t8.613 8q4.771 4.158 9.643 7.863t8.618 6.325q3.747 2.621 6.663-2.064a45.274 45.274 0 0 1 8.263-9.5q5.348-4.814 10.4-9.274t10.88-9.71a90.869 90.869 0 0 1 9.751-7.865q3.92-2.614 10.277-7.2t11.325-7.789q4.968-3.2 9.877-5.762t10.312-5.34a104.013 104.013 0 0 0 11.188-6.758 121.483 121.483 0 0 0 11.029-8.54q5.243-4.566 7.864-6.839t3.72-3.363a9.444 9.444 0 1 1 12.546 14.082 47.925 47.925 0 0 0-4.38 3.542q-6.244 5.315-10.464 8.666t-10.724 7.688q-6.5 4.335-15.6 9.785t-14.126 8.629q-5.034 3.181-11.437 8.007t-12.287 9.446a132.861 132.861 0 0 0-11.1 9.751q-5.216 5.128-9.92 9.482t-9.434 9a91.462 91.462 0 0 1-9.214 8 32.992 32.992 0 0 1-10.474 5.137 13.565 13.565 0 0 1-10.8-.864 69.083 69.083 0 0 1-8.527-5.476q-3.723-2.833-7.425-5.75a85.591 85.591 0 0 1-7.418-6.621q-3.715-3.7-7.478-7.28t-7.571-7.668q-3.808-4.093-8.564-9.155t-8.9-9.524a100.437 100.437 0 0 1-7.635-9.275q-3.5-4.811-6.662-9.229t-6.409-9.267q-3.241-4.85-7.252-9.977t-7.955-9.426q-3.945-4.3-4.554-5.2a8.974 8.974 0 0 1 13.465-11.668l.808.731Z"/><path d="m45.875 159.357 3.579-3.472q3.579-3.473 7.779-7.818t8.5-8q4.3-3.654 6.348-5.6a26.319 26.319 0 0 1 3.324-2.777 9.282 9.282 0 1 1 3.463 16.895c-1-.179 8-2.215 8-2.215l-6.287 5.106q-6.287 5.107-10.632 9.307t-7.816 7.778q-3.473 3.579-4.33 4.251a8.976 8.976 0 0 1-12.6-12.6Z"/><path d="m271.232 185.216-2.638-2.942q-2.639-2.943-6.447-6.532a89.166 89.166 0 0 0-8.022-6.717q-4.214-3.128-9.533-6.446t-9.951-6.718q-4.632-3.4-7.907-6.219a22.182 22.182 0 0 1-4.109-4.2 9.856 9.856 0 1 1 17.378-9.244 23.294 23.294 0 0 1-1.337-2.332l1.22 1.074q1.221 1.076 7.364 5.528t10.185 7.174a107.868 107.868 0 0 1 8.63 6.539q4.589 3.816 9.1 8.31t7.156 7.426q2.65 2.933 3.29 3.845a9.173 9.173 0 0 1-13.537 12.182l-.839-.732Z"/></svg>