<svg xmlns="http://www.w3.org/2000/svg" viewBox="0 0 335 354"><path d="m4.282 228.922 4.221-3.787q4.221-3.785 10.552-9.4a96.139 96.139 0 0 0 11.118-11.566q4.787-5.948 8.771-11.169t7.962-10.84q3.976-5.617 7.7-10.789t9.253-12.405q5.533-7.234 9.435-12.755t8.481-11.973q4.577-6.451 8.539-13.025a123.492 123.492 0 0 1 7.968-11.753q4.006-5.181 15.726-8.841t17.147 1.24a41.994 41.994 0 0 1 9.112 12.03q3.684 7.13 6.793 13.964a85.442 85.442 0 0 1 4.91 13.711 124.509 124.509 0 0 0 4.638 14.073 71.427 71.427 0 0 0 6.267 12.521q3.431 5.325-4.376 5.791t-6.017-6.709a143.041 143.041 0 0 0 2.847-14.7q1.059-7.532 1.912-15.545t2.177-14.869a146.725 146.725 0 0 1 4.113-15.76 98.169 98.169 0 0 1 7.468-17.519q4.68-8.616 8.275-15.912t7.955-15.405a130 130 0 0 0 7.707-17.353q3.347-9.243 6.289-16.358a59.929 59.929 0 0 1 8.592-14.233A24.912 24.912 0 0 1 224.829.544q9.363-1.924 15.383 3.042t8.962 15.588q2.944 10.623 4.476 17.994t2.721 13.838q1.188 6.467 2.762 12.955t3.392 16.373q1.816 9.887 3.794 17.266a165.539 165.539 0 0 1 3.558 17.848q1.581 10.469 3.738 21.82t3.708 17.461q1.549 6.113 3.554 13.734a119.018 119.018 0 0 0 4.524 13.922 71.589 71.589 0 0 0 8.17 14.279q5.649 7.977 10.2 13.907a40.582 40.582 0 0 0 10.919 9.871q6.363 3.94 7.851 4.356a19.674 19.674 0 0 1 3.612 1.516 14.583 14.583 0 1 1-14.781 25.091c-1.328-.882.961.847-4.089-1.261s-10.518-5.971-16.4-11.587a89.892 89.892 0 0 1-13.464-15.589q-4.632-7.16-10.11-15.125a73.9 73.9 0 0 1-8.465-15.967 140.875 140.875 0 0 1-4.89-15.764q-1.9-7.764-4.021-14.737t-3.614-13.318q-1.5-6.345-3.676-17.333t-3.785-18.237q-1.61-7.251-3.848-16.343t-4.393-17.354q-2.154-8.262-3.581-15.729t-3.294-16.456a49.3 49.3 0 0 1-.91-16.322q.954-7.334 9.149-8.432t2.988 5.432a56.293 56.293 0 0 0-8.018 13.215q-2.812 6.688-5.712 15.158a124.28 124.28 0 0 1-6.71 15.984q-3.81 7.511-7.54 15.545t-7.977 17.165a105.238 105.238 0 0 0-6.454 17.512 108.416 108.416 0 0 0-3.058 17.166q-.852 8.787-1.73 15.2t-2.637 14.577a144.528 144.528 0 0 1-4.417 15.974 24.9 24.9 0 0 1-9.925 12.771q-7.269 4.956-16.707 3.016t-14.6-8.5a70.59 70.59 0 0 1-8.741-14.427q-3.581-7.864-5.857-13.989a104.862 104.862 0 0 1-3.725-12.2 65.416 65.416 0 0 0-4.172-12.036 39.6 39.6 0 0 1-3.39-12.509q-.672-6.538 5.584-4.243t1.352 9.379q-4.9 7.084-8.586 12.283t-8.853 12.3q-5.173 7.1-9.809 12.526t-8.727 10.8q-4.09 5.378-8.917 11.444t-8.846 11.319q-4.021 5.253-9.061 11.375t-9.726 11.044a142.178 142.178 0 0 1-11.149 10.385q-6.464 5.463-10.672 9.264t-5.512 4.715a13.133 13.133 0 0 1-17.443-19.381l1.048-1.2Z"/></svg>