<svg xmlns="http://www.w3.org/2000/svg" viewBox="0 0 335 349"><path d="M41.177 41.981c-3.915 4.289-10.365 16.68-12.152 20.373S25.874 72.317 25.17 76.2a73.817 73.817 0 0 0-1.2 11.133q-.147 5.308-.127 10.846t.514 11.341q.494 5.8.649 10.865t.746 11.3q.59 6.233 1.254 10.987t1.4 10.192q.732 5.439 1.65 11.35t1.728 10.775a83.516 83.516 0 0 1 1.04 9.951 76.037 76.037 0 0 0 1.244 10.51 98.906 98.906 0 0 1 1.417 10.919q.405 5.5.741 11.017t.9 11.057q.56 5.536.6 11.167t.272 11.546q.23 5.916.387 12.332t.589 11.607q.43 5.191 1 10.8a31.7 31.7 0 0 0 2.849 10.42 45.934 45.934 0 0 0 12.186 15.931 31.752 31.752 0 0 0 10.474 5.581 118.269 118.269 0 0 0 11.611 3.364 101.787 101.787 0 0 0 11.514 1.852q6.414.694 13.127 1.022t13.614.894q6.9.565 14.622.767t13.828.213q6.105.012 12.6-.068t11.677-.1q5.185-.026 11.185-.1t11.925-.135q5.925-.061 11.2-.123t10.109-.063a73.676 73.676 0 0 0 11.154-.985 84.336 84.336 0 0 0 11.079-2.4q4.754-1.419 9.947-3.154a16.357 16.357 0 0 0 8.273-5.961q3.078-4.226-.357-8.762a14.687 14.687 0 0 0-9.112-5.678q-5.677-1.144-12.1-1.841t-12-1.16q-5.575-.463-11.7-1.1t-12.912-.752q-6.789-.118-12.513-.52t-11.6-1.043a83.159 83.159 0 0 1-11.989-2.236 124.688 124.688 0 0 1-12.312-3.919 83 83 0 0 1-11.318-5.197 37.476 37.476 0 0 1-8.673-6.508 30.34 30.34 0 0 1-5.687-8.14 25.581 25.581 0 0 1-2.484-9.244q-.34-4.747-.367-11.093t.505-13.865a25.856 25.856 0 0 1 3.667-12.369 25.006 25.006 0 0 1 8.226-7.917 38.247 38.247 0 0 1 9.793-4.319 50.134 50.134 0 0 1 10.889-1.5 93.8 93.8 0 0 1 11.05.144 84.444 84.444 0 0 1 10.133 1.462q5.27 1.074 10.708 2.206t11.322 2.351q5.886 1.219 11.488 2.358a79.567 79.567 0 0 0 11.252 1.467q5.648.327 13.249.532t15.652.668q8.051.463 14.231.662t12.59.17a33.9 33.9 0 0 0 11.115-1.69q4.7-1.66 8.507-7.059a59.085 59.085 0 0 0 6.453-11.978q2.653-6.579 5.62-15.307a130.074 130.074 0 0 0 4.482-16.322q1.514-7.6 2.729-15.338a157.14 157.14 0 0 0 1.649-16.626q.434-8.884.293-14.117t-.49-10.33q-.349-5.1-.974-12.814a103.314 103.314 0 0 0-2.094-14.268q-1.471-6.551-2.518-12.076a75.657 75.657 0 0 0-3.6-12.313 119.5 119.5 0 0 0-4.76-11.212 31.475 31.475 0 0 0-5.538-7.861 23.732 23.732 0 0 0-7.742-5.34q-4.418-1.9-8.94-3.375t-11.754-3.214q-7.233-1.742-15.66-3.084a149.185 149.185 0 0 0-16.069-1.718q-7.644-.378-14.625-.43l-15-.111q-8.015-.06-15.807-.078t-16.048.656q-8.257.674-16.73 1.4t-14.776 1.386q-6.3.658-12.318 1.544t-13.08 1.967q-7.064 1.08-13.878 1.788a82.059 82.059 0 0 0-12.286 2.145q-5.471 1.437-11.625 3.032t-11.2 2.516q-5.049.921-12.006 1.869c-4.638.632-5.383-.172-11.919 1.883s-5.381.717-8.772 2.62-6.3.034-7.531 0a11.2 11.2 0 0 1-3.578-.686c-1.155-.425-2.211-4.915-3.17-5.686s.652-8.1 6.806-11.448 16.245-7.275 20.785-7.9 8.8-1.158 12.777-1.6a92.337 92.337 0 0 0 12.583-2.339q6.615-1.682 13.213-3.219a96.228 96.228 0 0 1 13.037-2.13q6.438-.593 13.588-1.657t14.1-1.946q6.955-.88 13.307-1.4t14.373-1.259q8.02-.738 12.759-1.26t12.942-.873q8.205-.35 16.76-.417t15.466-.016q6.913.051 14.81.195t12.733.38q4.836.237 13.59 1.379t17.8 3.034a121.321 121.321 0 0 1 14.706 3.869q5.666 1.978 10.107 4a58.458 58.458 0 0 1 8.673 4.9 30.462 30.462 0 0 1 7.811 8.1 79.9 79.9 0 0 1 6.385 11.162q2.8 5.949 4.932 11.8a88.316 88.316 0 0 1 3.639 14.121q1.513 8.271 2.993 15.784a123.982 123.982 0 0 1 2.027 15.49q.547 7.977 1.073 13.4t.936 11.365q.41 5.945.37 10.969t-.27 10.122q-.228 5.1-1.4 13.088t-2.786 16.723q-1.61 8.732-4.323 18.113t-4.222 14.15a84.994 84.994 0 0 1-3.521 9.245 80.223 80.223 0 0 1-6.628 11.31 43.277 43.277 0 0 1-8.793 10.054 29.731 29.731 0 0 1-10.963 4.937 69.071 69.071 0 0 1-13.118 2.066q-6.332.351-12.471.254t-13.669-.444q-7.531-.347-15.046-.26t-14.817.027a134.225 134.225 0 0 1-14.384-.882q-7.082-.823-12.29-1.875t-11.444-2.125q-6.235-1.074-10.873-2.219a66.077 66.077 0 0 0-12.036-1.529q-7.4-.384-12.992-.44t-5.616 6.133q-.023 6.189.1 13.1t4.54 9.675a50.956 50.956 0 0 0 10.011 4.756 86.66 86.66 0 0 0 11.816 3.251 96.522 96.522 0 0 0 12.752 1.7q6.534.439 11.314.473t11.991.638q7.212.6 14.131 1.076t12.011.818q5.092.345 10.656 1.054a82.6 82.6 0 0 1 11.9 2.494 57.433 57.433 0 0 1 11.724 4.689 30.441 30.441 0 0 1 9.081 7.347 23.6 23.6 0 0 1 4.935 9.471 36 36 0 0 1 .845 11.027 34.793 34.793 0 0 1-3.4 12.424 39.974 39.974 0 0 1-6.917 10.584 38.437 38.437 0 0 1-8.376 6.8 49.044 49.044 0 0 1-9.372 4.293 96.852 96.852 0 0 1-9.685 2.722q-4.774 1.069-10.044 2.135a88.7 88.7 0 0 1-10.163 1.476q-4.893.411-11.51.39t-12.252-.079q-5.636-.059-11.286-.129t-12.228-.136q-6.579-.066-13.511-.132t-12.44-.1q-5.508-.031-12.473-.025t-14.828-.148q-7.864-.154-14.455-.489t-14.647-.785q-8.055-.451-14.331-1.35t-12.357-2.389a103.067 103.067 0 0 1-10.931-3.268 53.4 53.4 0 0 1-9.173-4.382 51.479 51.479 0 0 1-8.21-6.157 87.935 87.935 0 0 1-8.484-9.184 85.014 85.014 0 0 1-7.538-10.642 34.293 34.293 0 0 1-4.058-10.389 104.532 104.532 0 0 1-1.69-11.358q-.57-5.981-1.123-11.64t-.783-10.8q-.231-5.137-.648-10.818t-.437-11.1q-.021-5.418-.536-11.353t-.63-10.858q-.116-4.922-.549-10.325t-1.016-10.237q-.584-4.833-1.005-10.615t-1.086-10.682q-.665-4.9-1.717-11.932t-1.791-11.945q-.739-4.913-1.678-12.776t-1.42-13.684q-.48-5.821-.956-12.044t-.433-11.536q.043-5.314.139-11.2t.811-12.867q.716-6.98 1.974-13.152a76.246 76.246 0 0 1 3.885-12.8c1.751-4.421 3.5-7.9 5.605-12.137s5.173-7.014 7.515-10.84 3.347 7.587 7.313 6.335 17.852-.965 13.937 3.324Z" data-name="Path 1"/><path d="m80.282 158.109.922-3.209q.921-3.209 2.147-9.52t3-12.684q1.777-6.374 3.46-12.557a51.008 51.008 0 0 1 4.786-11.692 53.744 53.744 0 0 1 7.212-9.99 39.127 39.127 0 0 1 8.265-7.025 53.168 53.168 0 0 1 9.72-4.552 36.759 36.759 0 0 1 10.64-2.259 27.3 27.3 0 0 1 9.945 1.345 22.476 22.476 0 0 1 8.852 5.539 52.647 52.647 0 0 1 6.96 8.46 45.014 45.014 0 0 1 4.931 10.225 66.562 66.562 0 0 1 2.793 10.886q.839 5.18 1.348 11.23t.991 11.307q.483 5.258 1.017 10.236a38.855 38.855 0 0 0 1.02 6.421 8.342 8.342 0 0 1 .434 2.952 12.437 12.437 0 0 1-24.6 2.157q-.312-1.477.855-6.865t2.8-11.565q1.635-6.178 3.341-12.342t3.815-12.165q2.109-6 4.191-10.806a52.515 52.515 0 0 1 5.923-10.044 95.4 95.4 0 0 1 7.633-9.238 53.4 53.4 0 0 1 7.782-6.832 21.82 21.82 0 0 1 9.332-3.689 19.2 19.2 0 0 1 11.361 2 53.056 53.056 0 0 1 11.524 7.51 105.688 105.688 0 0 1 8.846 8.234 28.643 28.643 0 0 1 5.283 7.943 50.763 50.763 0 0 1 3.159 12.8 114.064 114.064 0 0 1 1.306 13.442q.092 5.015-.628 13.364t-1.745 10.043a12.079 12.079 0 0 1-21.768-10.136c.424-1.25.035-1.873-.05-4.275s-.191-5.8-.322-10.2a34.266 34.266 0 0 0-2.64-12.4 37.181 37.181 0 0 0-6.307-10.2q-3.863-4.4-8.079-.008a43.933 43.933 0 0 0-6.819 9.088 62.074 62.074 0 0 0-4.883 12.548q-2.277 7.846-3.886 13.95t-3.491 11.14a28.27 28.27 0 0 0-1.933 6.545 12.437 12.437 0 0 1-24.6 2.159 12.5 12.5 0 0 0-.643-2.244 45.726 45.726 0 0 1-.929-6.867q-.6-6.1-1.054-11.719t-1.165-11.6a93.211 93.211 0 0 0-2.366-12.371q-1.655-6.387-6.314-9.03a9 9 0 0 0-9.309-.1 22.343 22.343 0 0 0-7.63 6.777 36.563 36.563 0 0 0-4.822 9.949q-1.84 5.721-3.425 10.96t-3.226 11.806q-1.641 6.567-2.641 9.766t-1.488 4.313a10.013 10.013 0 0 1-19.042-5.713l.207-1.2Z" data-name="Path 2"/></svg>