<svg xmlns="http://www.w3.org/2000/svg" viewBox="0 0 321 354"><path d="M205.669 21.204q-5.579-.783-7.576 4.114a25.186 25.186 0 0 0-1.4 11.753 38.256 38.256 0 0 0 4.32 14.12 139.241 139.241 0 0 0 8.378 14.188q4.655 6.922 8.727 12.72a127.151 127.151 0 0 0 9.414 11.757q5.342 5.958 8.869 9.576t8.946 10.052q5.419 6.434 9.242 10.12t9.754 10.136a101.9 101.9 0 0 0 11.655 10.978 80.5 80.5 0 0 0 11.994 7.878q6.268 3.35 9.323-2.29a18.753 18.753 0 0 0 2.074-12.069 47.3 47.3 0 0 0-3.958-12.826q-2.976-6.4-5.428-11.428t-4.943-9.5q-2.491-4.474-5.118-8.937a81.088 81.088 0 0 0-8.729-11.415q-6.1-6.953-9.25-10.641t-7.873-8.4q-4.726-4.71-10.022-9.9t-9.911-9.126a114.978 114.978 0 0 0-10.257-7.743 60.81 60.81 0 0 1-7.35-5.492q-1.707-1.684-2.774-2.76a22.612 22.612 0 0 1-3-3.611c-.445-.907 15.751 4.051 14.928 4.637a9.186 9.186 0 0 1-2.686 1.316c-.967.292 9.225-10.458 12.664-7.88s6.852 5.222 10.242 7.933 8.062 6.643 14.017 11.8a119.86 119.86 0 0 1 14.157 14.102q5.229 6.379 8.82 10.4t7.158 8.22a71.318 71.318 0 0 1 6.405 8.8q2.84 4.609 5.68 9.434t5.406 9.632q2.565 4.806 6.4 13.474a93.267 93.267 0 0 1 5.616 16.279 36.494 36.494 0 0 1 .4 15.114 51.3 51.3 0 0 1-5.872 15.559q-4.487 8.056-10.869 9.7a22.155 22.155 0 0 1-12.4-.259 66.487 66.487 0 0 1-13.047-5.955 98.877 98.877 0 0 1-14.341-10.245 112.4 112.4 0 0 1-12.448-12.13 135.884 135.884 0 0 0-9.335-9.9q-4.2-3.961-10.129-9.5t-9.532-9.008q-3.6-3.47-10.131-10.568a122.824 122.824 0 0 1-10.607-12.995q-4.078-5.9-9.206-13.247t-8.667-12.74a62.365 62.365 0 0 1-5.531-10.189 51.378 51.378 0 0 1-3.033-12.637 56.843 56.843 0 0 1-.186-14.607 42.907 42.907 0 0 1 4.143-13.5 25.31 25.31 0 0 1 8.235-10.106A20.288 20.288 0 0 1 198.694 0a59.289 59.289 0 0 1 13.712 1.622 60.536 60.536 0 0 1 12.766 4.456q5.774 2.816 9.621 5.044t4.81 2.958a9.948 9.948 0 0 1-.733 16.361c-.688.425-29.482-8.716-33.201-9.237Z"/><path d="m195.167 79.896-4.27 4.377q-4.27 4.377-8.185 8.072a91.145 91.145 0 0 0-7.762 8.365q-3.846 4.671-7.124 9.382t-7.1 9.637q-3.819 4.926-8.031 10.009a119.034 119.034 0 0 0-7.472 9.984q-3.26 4.9-7.168 10.04t-8.033 10.71q-4.125 5.572-8.07 11.472t-6.976 9.614q-3.029 3.714-7.213 8.36a51.623 51.623 0 0 0-5.652 7.118 18.447 18.447 0 0 1-2.8 3.769 11.362 11.362 0 1 1-14.9-17.111c.979-.763-1.278 1.034.7-1.111s4.022-4.487 6.143-7.026 4.249-5.056 6.384-7.553 4.5-5.579 7.1-9.245 5.187-7.219 7.766-10.658 5.524-7.418 8.833-11.937 6.123-8.207 8.442-11.064 4.592-5.5 6.818-7.938 4.724-5.348 7.493-8.739 5.492-6.848 8.168-10.372 5.591-7.031 8.746-10.521 5.884-6.34 8.191-8.549 4.81-4.84 7.509-7.894 4.351-4.837 4.955-5.347a9.767 9.767 0 0 1 14.21 13.2Z"/><path d="m263.011 143.291-4.266 4.38q-4.266 4.381-9.739 10.452t-9.193 10.917q-3.721 4.846-8.159 10.761t-9 11.723q-4.563 5.808-9.553 11.554t-8.265 10.062q-3.275 4.316-6.472 8.688a75.667 75.667 0 0 1-9.595 10.283q-6.4 5.91-10.041 9.176t-7.516 7.2a31.559 31.559 0 0 0-4.583 5.3q-.711 1.372-1.633 2.8a10.357 10.357 0 1 1-14.226-14.383c.957-.6-3.393 3.379-2 1.022a47.293 47.293 0 0 1 7.168-8.622q5.078-5.087 9.134-9.026t8.98-8.455a74.29 74.29 0 0 0 8.344-8.891q3.42-4.375 6.487-8.1t7.948-9.181q4.881-5.459 9.532-11.2t9.331-11.768q4.678-6.027 9-11.237t10.1-11.411q5.773-6.2 9.825-10.78t4.954-5.339a9.709 9.709 0 0 1 14.126 13.118l-.692.954Z"/><path d="m95.993 166.732-3.2-2.551a36.411 36.411 0 0 0-9.992-5.011 63.513 63.513 0 0 0-12.064-3.243 7.847 7.847 0 0 0-8.2 3.434q-2.925 4.217-6.639 8.656a34.817 34.817 0 0 0-5.557 8.862 21.787 21.787 0 0 0-1.4 10.157 66.2 66.2 0 0 0 2.383 12.664 41.287 41.287 0 0 0 5.678 12.368 100.114 100.114 0 0 0 8.95 11.087q5.214 5.652 9.1 9.8t7.459 7.833q3.573 3.689 8.231 9.044a115.711 115.711 0 0 0 8.858 9.215q4.2 3.86 8.938 8.243t9.994 8.734q5.256 4.35 10.856 8.429t12.154 8.068q6.553 3.99 10.98 6.626a49.171 49.171 0 0 0 23.72 6.214 47.462 47.462 0 0 0 11.448-1.388 15.722 15.722 0 0 0 8.825-6.567q3.724-5.24 3.219-10.157a38.242 38.242 0 0 0-2.23-9.533 60.194 60.194 0 0 0-4.662-9.565 81.634 81.634 0 0 0-6.015-8.861 66.53 66.53 0 0 0-9.545-9.284 63.631 63.631 0 0 0-11.711-8q-5.246-2.633-6.511-3.47a9.249 9.249 0 0 1 8.429-16.344 82.266 82.266 0 0 1 7.517 4.144 86.886 86.886 0 0 1 10.743 7.1q3.739 3.035 7.865 7a81.206 81.206 0 0 1 7.828 8.716 130.506 130.506 0 0 1 7.69 11.166 69.924 69.924 0 0 1 6.507 13.464q2.518 7.056 1.269 19.96t-4.333 16.91q-3.085 4.005-11.022 8.459t-13.608 4.654a114.53 114.53 0 0 1-11.664-.2 55.536 55.536 0 0 1-10.863-1.727 82.85 82.85 0 0 1-10.875-3.915 66.4 66.4 0 0 1-10.072-5.257q-4.066-2.67-11.475-6.647t-13.582-8.1q-6.173-4.127-12.057-8.543t-10.794-8.617q-4.91-4.2-9.862-8.492t-9.779-9.101q-4.827-4.79-8.519-8.408t-7.863-7.635q-4.173-4.016-10.1-10.307t-9.171-10.412a61.841 61.841 0 0 1-7.011-12.515 74.274 74.274 0 0 1-4.855-13.335q-1.092-4.94-1.1-16.393t3.3-18.3a58.02 58.02 0 0 1 7.885-12.274q4.582-5.428 8.277-9.1a44.7 44.7 0 0 1 9.809-7.072q6.113-3.4 11.586-2.77a88.8 88.8 0 0 1 12.374 2.454 69.078 69.078 0 0 1 13.75 5.319 61.764 61.764 0 0 1 10.049 6.063q3.2 2.568 4.047 3.432a9.966 9.966 0 0 1-12.358 15.453Z"/><path d="m2.327 337.146 1.875-2.275q1.876-2.276 4.9-6.839a72.22 72.22 0 0 1 6.5-8.435q3.482-3.871 7.437-8.11t7.277-7.671q3.321-3.431 7.986-7.525a102.928 102.928 0 0 0 8.365-8.174q3.7-4.081 7.825-8.387t9.08-9.426q4.957-5.12 7-7.192a29.2 29.2 0 0 1 3.687-3.243 12.308 12.308 0 0 1 16.275 18.276c-.9 1-.746.99-1.551 1.774s-2.475 2.353-5.012 4.706-5.35 4.922-8.439 7.7-6.355 5.617-9.8 8.5a119.51 119.51 0 0 0-10.746 10.357q-5.583 6.028-9.509 9.555t-7.343 6.833q-3.416 3.305-7.151 6.78a54.877 54.877 0 0 0-6.665 7.414q-2.931 3.939-4.895 6.143t-2.85 3.015a9.894 9.894 0 0 1-14.915-12.785Z"/></svg>