<svg xmlns="http://www.w3.org/2000/svg" viewBox="0 0 215 188"><path d="m93.953 20.937-3.844-.636a89.261 89.261 0 0 0-10.214-.915 65.816 65.816 0 0 0-12.984.744 26.831 26.831 0 0 0-10.74 3.746 71.473 71.473 0 0 0-7.614 5.76 58.339 58.339 0 0 0-7.21 7.73q-3.724 4.691-7.392 9.793t-6.721 9.921a31.347 31.347 0 0 0-4.23 10.48 61.669 61.669 0 0 0-1.25 11.85q-.075 6.189-.08 11.366a48.734 48.734 0 0 0 1.392 11.141 58.244 58.244 0 0 0 3.355 10.358 20.74 20.74 0 0 0 7.128 8.124 40.9 40.9 0 0 0 11.869 5.82 75.256 75.256 0 0 0 12.41 2.847 100.81 100.81 0 0 0 10.68.885 85.309 85.309 0 0 0 9.525-.269 30.44 30.44 0 0 0 9.787-2.748q5.228-2.353 10.69-4.912a62.845 62.845 0 0 0 10.663-6.4 58.863 58.863 0 0 0 9.23-8.406 45.142 45.142 0 0 0 6.636-9.825 50.637 50.637 0 0 0 4.017-11.63 72.073 72.073 0 0 0 1.687-11.322q.28-4.954.287-9.711a33.212 33.212 0 0 0-2.539-11.468q-2.546-6.71-4.883-11.7a76.923 76.923 0 0 0-4.854-8.906 15.489 15.489 0 0 0-7.315-5.922q-4.8-2-6.775-3.035a21.745 21.745 0 0 0-3.7-1.555 10.967 10.967 0 1 1 7.5-20.577c1.1.471 4.692 1.834 8.341 3.532a61.673 61.673 0 0 1 10.979 6.682 32.938 32.938 0 0 1 8.537 9.12 65.928 65.928 0 0 1 4.78 9.276q1.746 4.29 3.9 9.226t3.905 9.7a33.4 33.4 0 0 1 2.006 9.888q.258 5.126-.011 11.147a117.871 117.871 0 0 1-1.45 13.35q-1.18 7.33-2.332 11.762a61.571 61.571 0 0 1-3 8.743 57.354 57.354 0 0 1-6.708 10.848 77.454 77.454 0 0 1-9.992 11.191q-5.13 4.655-9.55 7.924t-9.753 6.459a127.772 127.772 0 0 1-12.015 6.27 46.306 46.306 0 0 1-12.578 3.944 62.968 62.968 0 0 1-10.52.755q-4.623-.111-11.732-.52a90.462 90.462 0 0 1-13.41-1.735 97.521 97.521 0 0 1-12.833-3.67 54.564 54.564 0 0 1-14.36-8.358q-7.826-6.015-10.81-10.994a72.852 72.852 0 0 1-5.572-11.9 63.621 63.621 0 0 1-3.447-12.587 71.467 71.467 0 0 1-.846-10.91q.014-5.242.1-10.024t.53-9.761a56.963 56.963 0 0 1 1.755-9.806 44.556 44.556 0 0 1 4.216-10.028q2.908-5.2 6.66-11.074t7.6-11.094a94.722 94.722 0 0 1 7.394-8.967 69.511 69.511 0 0 1 7.187-6.635 63.56 63.56 0 0 1 9.217-5.911 68.124 68.124 0 0 1 12.237-5.09A46.635 46.635 0 0 1 68.859.052q5.313-.2 12.923.3t11.456 1.143q3.846.646 4.947.97a9.457 9.457 0 0 1-3.087 18.52l-1.147-.05Z"/><path d="m138.796 108.547 2.611 2.184q2.614 2.184 9.589 7.249t13 9.4q6.022 4.332 11.825 8.654t10.615 8.4q4.812 4.074 10.1 9.344t8.723 8.885q3.436 3.614 4.065 6.053a15.364 15.364 0 0 1-25.646 14.8 29.966 29.966 0 0 1-2.731-3.643c-1.1-1.427-1.029-1.362-4.666-4.416s-7.006-6.029-10.108-8.927-6.491-5.877-10.17-8.94-7.587-6.234-11.726-9.515-8.16-6.593-12.062-9.94-6.691-5.787-8.366-7.322-2.868-2.7-3.579-3.491a13.161 13.161 0 0 1 17.208-19.665l1.32.9Z"/></svg>